<?xml version="1.0" encoding="iso-8859-1"?>
<!-- Generator: Adobe Illustrator 19.0.0, SVG Export Plug-In . SVG Version: 6.00 Build 0)  -->
<svg version="1.1" id="Layer_1" xmlns="http://www.w3.org/2000/svg" xmlns:xlink="http://www.w3.org/1999/xlink" x="0px" y="0px"
	 viewBox="0 0 512 512" style="enable-background:new 0 0 512 512;" xml:space="preserve">
<path style="fill:#FFFFFF;" d="M256,504C119.248,504,8,392.752,8,256S119.248,8,256,8s248,111.248,248,248S392.752,504,256,504z"/>
<path style="fill:#E2E2E2;" d="M256,16c132.336,0,240,107.664,240,240S388.336,496,256,496S16,388.336,16,256S123.664,16,256,16
	 M256,0C114.616,0,0,114.616,0,256s114.616,256,256,256s256-114.616,256-256S397.384,0,256,0L256,0z"/>
<circle style="fill:#ba2779;" cx="256" cy="256" r="216.32"/>
<g>
	<path style="fill:#FFFFFF;" d="M117.376,293.136c0-5.568,0.768-11.64,2.304-18.192h18.56v12.864c0,7.48,1.088,12.848,3.264,16.136
		c2.168,3.272,5.744,4.912,10.712,4.912c5.024,0,8.576-1.808,10.656-5.424c2.088-3.616,3.128-8.824,3.128-15.624v-30.336
		c0-3.92-0.336-7.088-1.008-9.504s-1.592-4.32-2.76-5.704c-1.168-1.376-2.528-2.312-4.096-2.808
		c-1.56-0.488-3.256-0.736-5.104-0.736c-3.432,0-6.368,0.968-8.824,2.896s-4.48,4.24-6.072,6.936h-17.552v-80.144h67.472v21.048
		h-47.608v38.792c2.568-2.944,5.808-5.24,9.696-6.896c3.888-1.648,7.952-2.48,12.176-2.48c9.744,0,16.88,3.272,21.416,9.832
		c4.536,6.552,6.808,16.2,6.808,28.952v26.656c0,8.088-1.048,14.84-3.128,20.264c-2.088,5.424-4.84,9.776-8.272,13.056
		c-3.44,3.28-7.4,5.624-11.904,7.032c-4.496,1.408-9.144,2.112-13.92,2.112c-5.832,0-10.968-0.784-15.448-2.344
		c-4.472-1.56-8.224-3.816-11.256-6.752c-3.032-2.944-5.336-6.488-6.896-10.616C118.16,302.928,117.376,298.288,117.376,293.136z"/>
	<path style="fill:#FFFFFF;" d="M210.12,213.264c0-6.856,0.632-12.792,1.888-17.792c1.248-4.992,2.904-9.184,4.96-12.584
		c2.056-3.408,4.424-6.152,7.128-8.224c2.696-2.088,5.472-3.696,8.32-4.832c2.84-1.136,5.696-1.88,8.544-2.248
		c2.84-0.368,5.472-0.552,7.856-0.552c2.264,0,4.792,0.168,7.576,0.504c2.792,0.336,5.608,1.04,8.464,2.112
		c2.84,1.08,5.6,2.64,8.272,4.688c2.664,2.056,5.024,4.8,7.08,8.224c2.048,3.44,3.704,7.664,4.96,12.688s1.88,11.032,1.88,18.016
		v66.368c0,6.856-0.624,12.792-1.88,17.784c-1.256,5-2.928,9.24-5.008,12.736c-2.088,3.496-4.48,6.328-7.168,8.496
		c-2.696,2.176-5.456,3.856-8.272,5.056s-5.624,2.008-8.408,2.44c-2.792,0.432-5.288,0.64-7.496,0.64c-2.456,0-5.12-0.208-8-0.64
		s-5.76-1.24-8.64-2.44s-5.648-2.856-8.32-5.008c-2.664-2.144-5.008-4.96-7.032-8.456s-3.648-7.752-4.864-12.784
		c-1.224-5.024-1.84-10.968-1.84-17.832L210.12,213.264L210.12,213.264z M234.48,289.64c0,6.496,1.176,11.216,3.536,14.16
		s5.96,4.416,10.808,4.416c4.72,0,8.232-1.472,10.568-4.416c2.328-2.936,3.496-7.656,3.496-14.16v-85.016
		c0-6.856-1.168-11.856-3.496-14.984c-2.336-3.128-5.848-4.688-10.568-4.688c-4.84,0-8.448,1.56-10.808,4.688
		s-3.536,8.128-3.536,14.984L234.48,289.64L234.48,289.64z"/>
	<path style="fill:#FFFFFF;" d="M330.312,236.048c-2.664,0-5.344-0.376-8.032-1.128s-5.12-2.208-7.296-4.384
		c-2.168-2.176-3.936-5.264-5.296-9.264c-1.352-3.992-2.032-9.24-2.032-15.752v-7.504c0-4.256,0.328-7.944,0.984-11.056
		c0.648-3.112,1.552-5.768,2.696-7.96c1.152-2.192,2.472-3.976,3.968-5.336c1.496-1.352,3.088-2.408,4.768-3.16
		c1.688-0.744,3.408-1.256,5.16-1.536c1.76-0.28,3.48-0.424,5.16-0.424c1.592,0,3.248,0.128,4.984,0.384
		c1.728,0.256,3.424,0.768,5.088,1.504c1.656,0.752,3.24,1.792,4.736,3.128c1.504,1.336,2.808,3.104,3.928,5.296
		s2.008,4.864,2.664,8s0.984,6.848,0.984,11.16v7.504c0,6.416-0.728,11.616-2.168,15.608c-1.456,4-3.288,7.104-5.504,9.296
		c-2.224,2.2-4.656,3.688-7.296,4.464C335.152,235.656,332.656,236.048,330.312,236.048z M330.456,224.896
		c2.952,0,5.008-1.272,6.176-3.832c1.168-2.544,1.752-6.504,1.752-11.888v-13.608c0-5.424-0.584-9.424-1.752-11.992
		c-1.168-2.576-3.224-3.856-6.176-3.856c-3.088,0-5.248,1.28-6.488,3.856c-1.24,2.568-1.856,6.568-1.856,11.992v13.608
		c0,5.384,0.616,9.344,1.856,11.888C325.2,223.624,327.368,224.896,330.456,224.896z M372.832,170.024h12.704l-32.2,121.168H340.56
		L372.832,170.024z M372.968,254.224c0-6.416,0.72-11.544,2.144-15.408c1.432-3.856,3.248-6.832,5.48-8.904
		c2.216-2.08,4.664-3.464,7.328-4.144s5.232-1.016,7.72-1.016c1.584,0,3.248,0.128,4.976,0.384c1.736,0.256,3.432,0.768,5.088,1.504
		c1.664,0.752,3.24,1.792,4.744,3.128c1.496,1.336,2.808,3.104,3.928,5.296s2.008,4.864,2.664,8s0.976,6.848,0.976,11.16v7.504
		c0,4.304-0.336,8.048-1.016,11.224s-1.584,5.896-2.736,8.144s-2.472,4.096-3.96,5.536c-1.504,1.456-3.08,2.6-4.736,3.44
		c-1.664,0.84-3.36,1.416-5.096,1.72c-1.728,0.304-3.368,0.464-4.904,0.464c-1.784,0-3.568-0.16-5.368-0.464
		c-1.808-0.304-3.528-0.848-5.192-1.648c-1.656-0.792-3.224-1.912-4.696-3.368c-1.48-1.448-2.752-3.296-3.832-5.536
		c-1.072-2.248-1.928-4.968-2.552-8.168c-0.632-3.2-0.952-6.984-0.952-11.336v-7.512H372.968z M387.352,265.368
		c0,5.384,0.616,9.344,1.856,11.888c1.24,2.552,3.408,3.832,6.496,3.832c2.944,0,5-1.272,6.168-3.832
		c1.168-2.544,1.76-6.504,1.76-11.888V251.76c0-5.424-0.584-9.424-1.76-11.992c-1.168-2.576-3.224-3.856-6.168-3.856
		c-3.088,0-5.248,1.28-6.496,3.856c-1.24,2.568-1.856,6.568-1.856,11.992V265.368z"/>
</g>
<g>
</g>
<g>
</g>
<g>
</g>
<g>
</g>
<g>
</g>
<g>
</g>
<g>
</g>
<g>
</g>
<g>
</g>
<g>
</g>
<g>
</g>
<g>
</g>
<g>
</g>
<g>
</g>
<g>
</g>
</svg>
